<svg width="373" height="455" viewBox="0 0 373 455" fill="none" xmlns="http://www.w3.org/2000/svg">
<path d="M186.5 373C289.501 373 373 289.501 373 186.5C373 83.4989 289.501 0 186.5 0C83.4989 0 0 83.4989 0 186.5C0 289.501 83.4989 373 186.5 373Z" fill="#FF6900"/>
<path d="M330.257 109.732H294.352C292.968 109.732 291.848 108.61 291.848 107.227C291.848 105.844 292.969 104.722 294.352 104.722H330.257C331.641 104.722 332.762 105.844 332.762 107.227C332.762 108.61 331.641 109.732 330.257 109.732Z" fill="#1D1F35"/>
<path d="M259.7 109.732H112.69C111.306 109.732 110.185 108.61 110.185 107.227C110.185 105.844 111.306 104.722 112.69 104.722H259.7C261.084 104.722 262.205 105.844 262.205 107.227C262.205 108.61 261.084 109.732 259.7 109.732Z" fill="#1D1F35"/>
<path d="M89.4981 109.732H48.8618C47.4781 109.732 46.3572 108.611 46.3572 107.227C46.3572 105.844 47.4781 104.722 48.8618 104.722H89.4981C90.8819 104.722 92.0027 105.844 92.0027 107.227C92.0027 108.61 90.8818 109.732 89.4981 109.732Z" fill="#1D1F35"/>
<path d="M330.257 130.607H299.362C297.979 130.607 296.858 129.486 296.858 128.102C296.858 126.719 297.979 125.597 299.362 125.597H330.257C331.641 125.597 332.762 126.719 332.762 128.102C332.762 129.486 331.641 130.607 330.257 130.607Z" fill="#1D1F35"/>
<path d="M280.436 130.607H95.8104C94.4266 130.607 93.3058 129.486 93.3058 128.102C93.3058 126.719 94.4268 125.597 95.8104 125.597H280.436C281.82 125.597 282.94 126.719 282.94 128.102C282.94 129.486 281.82 130.607 280.436 130.607Z" fill="#1D1F35"/>
<path d="M70.1877 130.607H48.8616C47.4779 130.607 46.3569 129.486 46.3569 128.102C46.3569 126.719 47.4779 125.597 48.8616 125.597H70.1877C71.5714 125.597 72.6924 126.719 72.6924 128.102C72.6924 129.486 71.5716 130.607 70.1877 130.607Z" fill="#1D1F35"/>
<path d="M330.257 151.482H48.8616C47.4779 151.482 46.3569 150.361 46.3569 148.977C46.3569 147.594 47.4779 146.472 48.8616 146.472H330.257C331.641 146.472 332.762 147.594 332.762 148.977C332.762 150.361 331.641 151.482 330.257 151.482Z" fill="#1D1F35"/>
<path d="M330.257 172.357H92.282C90.8981 172.357 89.7773 171.235 89.7773 169.852C89.7773 168.469 90.8983 167.347 92.282 167.347H330.257C331.641 167.347 332.762 168.469 332.762 169.852C332.762 171.236 331.641 172.357 330.257 172.357Z" fill="#1D1F35"/>
<path d="M70.1877 172.357H48.8616C47.4779 172.357 46.3569 171.235 46.3569 169.852C46.3569 168.469 47.4779 167.347 48.8616 167.347H70.1877C71.5714 167.347 72.6924 168.469 72.6924 169.852C72.6924 171.236 71.5716 172.357 70.1877 172.357Z" fill="#1D1F35"/>
<path d="M330.257 193.232H312.305C310.921 193.232 309.8 192.11 309.8 190.727C309.8 189.344 310.921 188.222 312.305 188.222H330.257C331.641 188.222 332.762 189.344 332.762 190.727C332.762 192.111 331.641 193.232 330.257 193.232Z" fill="#1D1F35"/>
<path d="M294.352 193.232H48.8616C47.4779 193.232 46.3569 192.11 46.3569 190.727C46.3569 189.344 47.4779 188.222 48.8616 188.222H294.352C295.736 188.222 296.857 189.344 296.857 190.727C296.857 192.111 295.736 193.232 294.352 193.232Z" fill="#1D1F35"/>
<path d="M330.257 214.107H48.8616C47.4779 214.107 46.3569 212.986 46.3569 211.602C46.3569 210.219 47.4779 209.097 48.8616 209.097H330.257C331.641 209.097 332.762 210.219 332.762 211.602C332.762 212.986 331.641 214.107 330.257 214.107Z" fill="#1D1F35"/>
<path d="M330.257 234.982H309.996C308.612 234.982 307.491 233.861 307.491 232.477C307.491 231.094 308.612 229.972 309.996 229.972H330.257C331.641 229.972 332.762 231.094 332.762 232.477C332.762 233.861 331.641 234.982 330.257 234.982Z" fill="#1D1F35"/>
<path d="M288.729 234.982H103.415C102.031 234.982 100.911 233.861 100.911 232.477C100.911 231.094 102.032 229.972 103.415 229.972H288.729C290.113 229.972 291.234 231.094 291.234 232.477C291.234 233.861 290.113 234.982 288.729 234.982Z" fill="#1D1F35"/>
<path d="M72.7983 234.982H48.8618C47.4781 234.982 46.3572 233.861 46.3572 232.477C46.3572 231.094 47.4781 229.972 48.8618 229.972H72.7983C74.1821 229.972 75.3029 231.094 75.3029 232.477C75.3029 233.861 74.182 234.982 72.7983 234.982Z" fill="#1D1F35"/>
<path d="M330.257 255.858H285.055C283.672 255.858 282.551 254.736 282.551 253.353C282.551 251.969 283.672 250.848 285.055 250.848H330.257C331.641 250.848 332.762 251.969 332.762 253.353C332.762 254.736 331.641 255.858 330.257 255.858Z" fill="#1D1F35"/>
<path d="M249.819 255.858H48.8616C47.4779 255.858 46.3569 254.736 46.3569 253.353C46.3569 251.969 47.4779 250.848 48.8616 250.848H249.819C251.203 250.848 252.323 251.969 252.323 253.353C252.323 254.736 251.203 255.858 249.819 255.858Z" fill="#1D1F35"/>
<path d="M26.2592 451.401C32.9356 450.096 39.6121 449.749 46.2884 449.607C52.9643 449.425 59.6408 449.521 66.3172 449.621C72.9937 449.698 79.6696 449.718 86.3461 449.705H106.375H186.491H266.607H306.665L316.68 449.702C320.018 449.704 323.356 449.588 326.694 449.534C333.371 449.504 340.047 449.58 346.723 451.4C347.191 451.528 347.467 452.011 347.339 452.479C347.255 452.79 347.012 453.016 346.723 453.096C340.047 454.915 333.371 454.992 326.694 454.962C323.356 454.908 320.018 454.791 316.68 454.793L306.665 454.791H266.607H186.491H106.375H86.3461C79.6696 454.778 72.9937 454.798 66.3172 454.875C59.6408 454.974 52.9643 455.071 46.2884 454.889C39.6119 454.747 32.9355 454.4 26.2592 453.095C25.791 453.004 25.486 452.55 25.5771 452.082C25.6467 451.728 25.9249 451.466 26.2592 451.401Z" fill="black"/>
<path d="M269.075 434.145L270.129 434.019C299.545 430.522 319.679 402.618 313.725 373.599L302.673 319.74C297.63 295.163 275.999 277.52 250.91 277.52H186.605H188.424H124.12C99.0302 277.52 77.3997 295.163 72.3564 319.74L61.3047 373.599C55.3504 402.618 75.4849 430.522 104.9 434.019L105.955 434.145H269.075Z" fill="#4D5A6A"/>
<path d="M269.098 434.549H105.955L104.853 434.421C90.7195 432.74 77.838 425.157 69.5102 413.616C61.1832 402.074 58.048 387.46 60.9085 373.518L71.9595 319.659C77.0186 295.008 98.9549 277.116 124.12 277.116H250.909C276.074 277.116 298.01 295.008 303.069 319.659L314.121 373.518C316.981 387.46 313.845 402.075 305.518 413.616C297.19 425.158 284.309 432.741 270.176 434.421L269.098 434.549ZM124.12 277.924C99.337 277.924 77.7331 295.545 72.7522 319.822L61.7012 373.681C58.8855 387.401 61.9703 401.784 70.1662 413.143C78.3613 424.501 91.0393 431.964 104.948 433.618L106.002 433.743L269.05 433.74L270.081 433.618C283.99 431.964 296.667 424.502 304.862 413.144C313.058 401.785 316.144 387.402 313.328 373.681L302.276 319.822C297.295 295.545 275.692 277.925 250.909 277.925L124.12 277.924Z" fill="black"/>
<g opacity="0.3">
<path d="M270.13 434.023L269.078 434.146H105.956L104.904 434.023C86.0826 431.788 71.0661 419.55 64.2372 403.438C71.7061 410.153 81.2525 414.72 92.0524 416.009L93.1044 416.131H256.226L257.278 416.009C286.698 412.511 306.834 384.608 300.873 355.592L289.828 301.732C289.082 298.112 287.978 294.649 286.558 291.362C294.57 298.673 300.365 308.473 302.67 319.738L313.724 373.598C319.676 402.614 299.54 430.525 270.13 434.023Z" fill="black"/>
</g>
<g opacity="0.55">
<path d="M276.985 284.401C270.962 282.026 264.423 280.737 257.629 280.737H130.843C105.754 280.737 84.1191 298.375 79.0785 322.955L68.0243 376.815C63.4834 398.95 74.1168 420.427 92.4733 430.929C70.0843 422.215 56.2337 398.31 61.3006 373.598L72.3549 319.738C77.3955 295.166 99.0304 277.52 124.119 277.52H250.905C260.32 277.52 269.244 280.001 276.985 284.401Z" fill="white"/>
</g>
<path d="M269.074 436.774H105.955C105.851 436.774 105.748 436.768 105.646 436.756L104.591 436.631C89.8402 434.877 76.3966 426.963 67.7057 414.918C59.0148 402.873 55.743 387.62 58.7284 373.071L69.7794 319.212C75.0492 293.53 97.9028 274.89 124.12 274.89H250.909C277.126 274.89 299.979 293.53 305.249 319.212L316.301 373.071C319.286 387.621 316.014 402.874 307.323 414.919C298.632 426.964 285.188 434.877 270.439 436.631L269.385 436.756C269.281 436.768 269.178 436.774 269.074 436.774ZM106.11 431.515H268.919L269.819 431.408C283.11 429.827 295.226 422.695 303.058 411.841C310.89 400.986 313.839 387.24 311.148 374.128L300.096 320.269C295.326 297.022 274.64 280.15 250.909 280.15H124.12C100.388 280.15 79.7023 297.022 74.9322 320.269L63.8812 374.128C61.1902 387.24 64.1385 400.986 71.9705 411.84C79.8033 422.695 91.9185 429.827 105.21 431.408L106.11 431.515Z" fill="black"/>
<path d="M281.167 237.739C281.009 238.352 280.842 238.975 280.676 239.579C280.544 240.044 280.413 240.5 280.281 240.956C280.229 241.131 280.185 241.298 280.123 241.473C280.018 241.85 279.895 242.227 279.781 242.595C279.632 243.077 279.475 243.551 279.317 244.024C279.247 244.234 279.176 244.445 279.106 244.646C278.879 245.33 278.642 246.005 278.388 246.671C278.125 247.408 277.844 248.135 277.555 248.854C277.274 249.582 276.976 250.301 276.669 251.019C276.371 251.729 276.056 252.448 275.731 253.15C275.424 253.833 275.109 254.508 274.785 255.184C274.741 255.271 274.697 255.359 274.653 255.447C274.355 256.078 274.04 256.7 273.715 257.322C273.706 257.34 273.698 257.358 273.689 257.375C273.338 258.068 272.979 258.742 272.611 259.426C272.172 260.233 271.725 261.03 271.261 261.819C270.945 262.372 270.621 262.915 270.296 263.459C270.279 263.476 270.27 263.494 270.27 263.503C269.867 264.169 269.455 264.826 269.034 265.484C268.333 266.58 267.614 267.667 266.869 268.745C266.544 269.218 266.211 269.683 265.878 270.147C265.598 270.542 265.317 270.928 265.028 271.322C264.598 271.909 264.16 272.488 263.722 273.067C263.292 273.628 262.862 274.171 262.424 274.724C262.179 275.03 261.933 275.337 261.688 275.635C261.53 275.828 261.372 276.021 261.214 276.214C260.916 276.564 260.627 276.915 260.329 277.266C259.523 278.212 258.699 279.15 257.857 280.08C257.454 280.535 257.033 280.982 256.612 281.43C256.305 281.754 255.998 282.087 255.692 282.411C255.253 282.867 254.824 283.314 254.377 283.752C253.746 284.392 253.097 285.032 252.448 285.663C251.922 286.172 251.396 286.672 250.861 287.163C250.782 287.241 250.704 287.32 250.625 287.382C250.081 287.899 249.529 288.399 248.968 288.898C247.942 289.819 246.899 290.713 245.838 291.598C245.575 291.817 245.312 292.036 245.04 292.264C244.506 292.703 243.962 293.141 243.41 293.579C241.499 295.096 239.544 296.56 237.545 297.971C237.51 297.998 237.466 298.024 237.431 298.05C229.638 303.538 221.161 307.614 212.36 310.288C209.309 311.217 206.215 311.98 203.094 312.576C189.27 315.206 174.946 314.513 161.384 310.516C152.267 307.833 143.492 303.652 135.436 297.971C134.805 297.524 134.174 297.069 133.543 296.613C133.482 296.56 133.42 296.516 133.35 296.472C132.728 296.008 132.105 295.543 131.492 295.079C130.852 294.588 130.212 294.088 129.572 293.58H129.563C128.932 293.071 128.31 292.563 127.687 292.054C127.056 291.537 126.442 291.011 125.829 290.485C125.215 289.959 124.61 289.433 124.014 288.898C123.409 288.355 122.813 287.82 122.226 287.268C121.638 286.724 121.06 286.172 120.481 285.611C119.903 285.059 119.333 284.498 118.772 283.928C118.211 283.358 117.65 282.788 117.098 282.21C116.545 281.623 115.993 281.035 115.441 280.439C114.915 279.861 114.397 279.282 113.88 278.686C113.477 278.23 113.074 277.766 112.679 277.301C111.531 275.942 110.409 274.557 109.322 273.146C108.884 272.567 108.436 271.989 108.016 271.401C107.954 271.331 107.902 271.252 107.849 271.182C107.551 270.788 107.262 270.384 106.981 269.981C106.332 269.069 105.701 268.158 105.088 267.228C104.746 266.72 104.404 266.203 104.08 265.686C103.58 264.905 103.089 264.125 102.607 263.327C102.274 262.766 101.932 262.197 101.599 261.627C101.143 260.829 100.696 260.014 100.249 259.198C99.9244 258.585 99.6 257.971 99.2844 257.358C98.9601 256.735 98.6444 256.104 98.3464 255.473C98.2939 255.385 98.2501 255.298 98.2148 255.21C97.5486 253.851 96.9262 252.475 96.3477 251.09C96.3126 251.028 96.2862 250.976 96.2688 250.914C95.9794 250.231 95.6989 249.547 95.4271 248.854C95.1378 248.135 94.8573 247.408 94.5943 246.671C94.3225 245.944 94.0595 245.207 93.8141 244.471C93.63 243.928 93.4458 243.375 93.2706 242.823C93.1304 242.385 92.9988 241.946 92.8674 241.508C92.806 241.315 92.7447 241.114 92.692 240.921C92.5606 240.491 92.4379 240.07 92.3239 239.641C92.1485 239.01 91.982 238.378 91.8155 237.739C85.2583 191.453 127.345 140.122 169.397 118.11C180.091 112.508 192.89 112.508 203.585 118.11C204.531 118.601 205.47 119.127 206.416 119.67L206.425 119.679C247.513 143.295 287.575 192.496 281.167 237.739Z" fill="#4D5A6A"/>
<g opacity="0.4">
<path d="M202.665 312.485C203.857 312.175 205.045 311.849 206.224 311.49C215.025 308.816 223.502 304.74 231.295 299.252C231.33 299.226 231.375 299.199 231.41 299.173C233.408 297.762 235.363 296.298 237.274 294.781C237.826 294.343 238.37 293.904 238.905 293.466C239.176 293.239 239.439 293.019 239.702 292.8C240.763 291.915 241.806 291.02 242.832 290.1C243.393 289.6 243.945 289.101 244.489 288.584C244.567 288.522 244.646 288.443 244.725 288.364C245.26 287.873 245.786 287.373 246.312 286.865C246.961 286.234 247.609 285.594 248.24 284.954C248.688 284.516 249.117 284.069 249.555 283.613C249.862 283.289 250.169 282.955 250.476 282.631C250.896 282.184 251.318 281.737 251.721 281.281C252.562 280.352 253.386 279.414 254.193 278.467C254.491 278.117 254.78 277.766 255.078 277.415C255.236 277.222 255.394 277.03 255.552 276.836C255.797 276.539 256.042 276.232 256.288 275.925C256.726 275.373 257.156 274.829 257.585 274.268C258.023 273.689 258.462 273.111 258.891 272.524C259.18 272.129 259.461 271.743 259.742 271.349C260.075 270.885 260.408 270.42 260.732 269.946C261.477 268.868 262.196 267.781 262.898 266.685C263.318 266.028 263.73 265.37 264.133 264.704C264.133 264.696 264.142 264.678 264.16 264.66C264.484 264.117 264.808 263.573 265.124 263.021C265.589 262.232 266.036 261.434 266.474 260.628C266.842 259.944 267.202 259.269 267.552 258.577C267.561 258.559 267.57 258.542 267.579 258.524C267.903 257.902 268.218 257.279 268.516 256.648C268.561 256.56 268.604 256.473 268.648 256.385C268.972 255.71 269.288 255.035 269.595 254.351C269.919 253.65 270.235 252.931 270.533 252.221C270.84 251.502 271.138 250.783 271.418 250.056C271.708 249.337 271.988 248.609 272.251 247.873C272.506 247.207 272.742 246.532 272.97 245.848C273.04 245.647 273.11 245.436 273.181 245.225C273.338 244.752 273.496 244.279 273.645 243.797C273.759 243.429 273.882 243.052 273.987 242.675C274.048 242.499 274.092 242.333 274.145 242.157C274.276 241.702 274.408 241.246 274.539 240.781C274.706 240.176 274.872 239.554 275.03 238.94C281.36 194.252 242.352 145.702 201.799 121.76C230.327 147.707 251.912 184.063 247.083 218.173C246.925 218.787 246.759 219.409 246.592 220.014C246.461 220.479 246.329 220.934 246.198 221.39C246.145 221.565 246.101 221.732 246.04 221.907C245.935 222.284 245.812 222.661 245.698 223.029C245.55 223.512 245.392 223.985 245.234 224.458C245.164 224.669 245.094 224.879 245.023 225.081C244.795 225.764 244.559 226.44 244.305 227.106C244.042 227.842 243.761 228.569 243.472 229.289C243.191 230.016 242.893 230.735 242.587 231.454C242.288 232.164 241.973 232.883 241.648 233.584C241.342 234.268 241.026 234.943 240.701 235.618C240.658 235.705 240.614 235.793 240.57 235.881C240.272 236.512 239.957 237.134 239.632 237.757C239.623 237.774 239.615 237.792 239.606 237.809C239.255 238.502 238.896 239.177 238.527 239.861C238.089 240.667 237.642 241.465 237.177 242.254C236.862 242.806 236.538 243.35 236.213 243.893C236.196 243.91 236.187 243.928 236.187 243.937C235.784 244.603 235.372 245.26 234.951 245.918C234.25 247.014 233.531 248.101 232.786 249.179C232.461 249.652 232.128 250.117 231.795 250.582C231.514 250.976 231.234 251.362 230.945 251.757C230.515 252.344 230.077 252.922 229.638 253.501C229.209 254.062 228.78 254.605 228.341 255.158C228.096 255.465 227.85 255.772 227.605 256.069C227.447 256.263 227.289 256.455 227.131 256.648C226.833 256.999 226.544 257.349 226.246 257.7C225.44 258.647 224.616 259.585 223.774 260.514C223.37 260.97 222.95 261.417 222.529 261.864C222.222 262.188 221.916 262.522 221.609 262.846C221.17 263.302 220.741 263.749 220.294 264.187C219.662 264.827 219.014 265.467 218.365 266.098C217.839 266.607 217.313 267.106 216.778 267.597C216.699 267.676 216.621 267.755 216.542 267.817C215.998 268.334 215.446 268.833 214.885 269.333C213.859 270.253 212.816 271.148 211.755 272.033C211.492 272.252 211.229 272.471 210.958 272.699C210.423 273.137 209.879 273.576 209.327 274.014C207.416 275.531 205.461 276.995 203.462 278.406C203.427 278.432 203.384 278.459 203.349 278.485C195.555 283.973 187.078 288.049 178.277 290.723C175.226 291.652 172.132 292.414 169.011 293.011C169.161 292.982 169.309 292.948 169.459 292.919C167.568 293.41 165.666 293.846 163.752 294.212C152.314 296.387 140.536 296.282 129.13 293.919C128.997 293.815 128.864 293.713 128.731 293.609C129.359 294.107 129.987 294.598 130.615 295.079C131.229 295.544 131.851 296.009 132.474 296.473C132.544 296.517 132.605 296.561 132.667 296.613C133.298 297.069 133.929 297.525 134.56 297.973C142.616 303.653 151.391 307.835 160.508 310.517C174.07 314.514 188.393 315.207 202.218 312.577C203.849 312.265 205.472 311.906 207.087 311.503C205.62 311.867 204.146 312.194 202.665 312.485Z" fill="black"/>
</g>
<g opacity="0.55">
<path d="M221.46 130.034C218.225 127.842 214.955 125.799 211.686 123.915L211.677 123.906C210.73 123.363 209.792 122.836 208.845 122.346C198.15 116.744 185.352 116.744 174.657 122.346C132.605 144.358 90.5189 195.693 97.076 241.978C97.2425 242.618 97.4092 243.25 97.5844 243.881C97.6984 244.31 97.8211 244.731 97.9525 245.161C98.0051 245.353 98.0665 245.555 98.1279 245.748C98.2593 246.186 98.3909 246.625 98.5311 247.063C98.7065 247.615 98.8906 248.167 99.0746 248.711C99.32 249.447 99.583 250.184 99.8548 250.911C100.118 251.648 100.398 252.375 100.688 253.094C100.959 253.787 101.24 254.47 101.529 255.154C101.547 255.216 101.573 255.268 101.608 255.33C102.187 256.715 102.809 258.091 103.475 259.45C103.51 259.537 103.554 259.625 103.607 259.713C103.905 260.344 104.22 260.975 104.545 261.597C104.86 262.211 105.184 262.825 105.509 263.438C105.956 264.254 106.403 265.069 106.859 265.867C107.192 266.436 107.534 267.006 107.867 267.567C108.349 268.365 108.84 269.145 109.34 269.925C109.664 270.443 110.006 270.96 110.348 271.468C110.962 272.398 111.593 273.309 112.241 274.221C112.522 274.624 112.811 275.027 113.109 275.422C113.162 275.492 113.214 275.571 113.276 275.641C113.697 276.228 114.144 276.807 114.582 277.386C115.669 278.797 116.791 280.182 117.94 281.541C118.334 282.005 118.737 282.47 119.14 282.926C119.658 283.522 120.175 284.101 120.701 284.679C121.253 285.275 121.805 285.863 122.358 286.45C122.91 287.028 123.471 287.598 124.032 288.168C124.593 288.738 125.163 289.299 125.741 289.851C126.32 290.412 126.899 290.964 127.486 291.508C128.073 292.06 128.669 292.595 129.274 293.138C129.87 293.673 130.475 294.199 131.089 294.725C131.703 295.251 132.316 295.777 132.947 296.294C133.57 296.803 134.192 297.311 134.823 297.82H134.832C135.472 298.328 136.112 298.828 136.752 299.319C137.322 299.748 137.9 300.178 138.479 300.616C137.751 300.143 137.032 299.652 136.313 299.143C135.682 298.696 135.051 298.24 134.42 297.784C134.358 297.732 134.297 297.688 134.227 297.644C133.604 297.179 132.982 296.715 132.368 296.25C131.729 295.759 131.089 295.26 130.449 294.751H130.44C129.809 294.243 129.186 293.734 128.564 293.226C127.933 292.709 127.319 292.183 126.706 291.657C126.092 291.131 125.487 290.605 124.891 290.07C124.286 289.527 123.69 288.992 123.103 288.44C122.515 287.896 121.937 287.344 121.358 286.783C120.78 286.23 120.21 285.669 119.649 285.1C119.088 284.53 118.527 283.96 117.974 283.381C117.422 282.794 116.87 282.207 116.318 281.611C115.792 281.032 115.274 280.454 114.757 279.858C114.354 279.402 113.951 278.937 113.556 278.472C112.408 277.114 111.286 275.729 110.199 274.317C109.76 273.739 109.313 273.16 108.892 272.573C108.831 272.503 108.778 272.424 108.726 272.354C108.428 271.959 108.139 271.556 107.858 271.153C107.209 270.241 106.578 269.329 105.965 268.4C105.623 267.892 105.281 267.374 104.956 266.857C104.457 266.077 103.966 265.297 103.484 264.499C103.151 263.938 102.809 263.368 102.476 262.798C102.02 262 101.573 261.185 101.126 260.37C100.801 259.756 100.477 259.143 100.161 258.529C99.837 257.907 99.5213 257.276 99.2233 256.644C99.1708 256.557 99.127 256.469 99.0917 256.381C98.4255 255.023 97.8031 253.646 97.2246 252.261C97.1895 252.2 97.1631 252.147 97.1457 252.086C96.8563 251.402 96.5758 250.718 96.3041 250.026C96.0148 249.307 95.7342 248.579 95.4713 247.843C95.1996 247.115 94.9366 246.379 94.6912 245.643C94.507 245.099 94.3229 244.547 94.1477 243.995C94.0075 243.556 93.8759 243.118 93.7445 242.68C93.683 242.487 93.6218 242.285 93.5691 242.092C93.4376 241.663 93.3149 241.242 93.201 240.813C93.0256 240.181 92.8591 239.55 92.6926 238.91C86.1354 192.625 128.222 141.289 170.274 119.278C180.968 113.676 193.767 113.676 204.462 119.278C205.409 119.768 206.347 120.294 207.293 120.838L207.302 120.847C212.063 123.582 216.805 126.659 221.46 130.034Z" fill="white"/>
</g>
<path d="M186.49 316.754C168.062 316.755 149.638 311.209 133.921 300.121C133.279 299.666 132.64 299.205 132.002 298.744C131.969 298.72 131.937 298.696 131.905 298.67C131.861 298.641 131.818 298.611 131.776 298.58C131.114 298.085 130.504 297.63 129.903 297.175C129.282 296.698 128.672 296.222 128.063 295.739C128.011 295.704 127.962 295.667 127.914 295.628C127.298 295.132 126.69 294.635 126.081 294.138C125.374 293.559 124.745 293.02 124.117 292.482C123.488 291.942 122.868 291.403 122.258 290.855L122.172 290.778C121.58 290.247 120.999 289.723 120.424 289.183C119.837 288.64 119.244 288.074 118.65 287.499C118.068 286.942 117.478 286.362 116.898 285.773C116.303 285.17 115.744 284.602 115.194 284.025C114.624 283.419 114.069 282.828 113.512 282.227C112.955 281.614 112.424 281.02 111.893 280.409C111.495 279.959 111.079 279.48 110.673 279C109.469 277.577 108.314 276.148 107.238 274.75L106.948 274.368C106.604 273.916 106.261 273.464 105.931 273.006C105.87 272.93 105.813 272.853 105.758 272.777C105.433 272.347 105.124 271.915 104.823 271.484C104.119 270.495 103.483 269.57 102.894 268.678C102.548 268.164 102.19 267.624 101.852 267.083C101.352 266.304 100.849 265.504 100.356 264.686L100.046 264.166C99.8066 263.764 99.5649 263.359 99.3282 262.953C98.8759 262.162 98.4441 261.376 98.0131 260.591L97.9436 260.464C97.5939 259.804 97.2648 259.181 96.945 258.559C96.6277 257.95 96.312 257.319 96.0121 256.688C95.9395 256.556 95.8732 256.423 95.8163 256.289C95.1082 254.825 94.5028 253.49 93.9677 252.215C93.9165 252.113 93.8604 251.991 93.809 251.85C93.524 251.174 93.247 250.498 92.9785 249.814C92.6856 249.084 92.392 248.324 92.1173 247.555C91.8482 246.834 91.5751 246.068 91.3192 245.302C91.1338 244.754 90.9443 244.186 90.7634 243.619C90.6205 243.169 90.4847 242.717 90.3483 242.265C90.2883 242.075 90.2172 241.84 90.1557 241.616C90.0358 241.227 89.9039 240.775 89.7815 240.313C89.6109 239.699 89.4405 239.055 89.2708 238.401C89.2456 238.305 89.2259 238.206 89.2116 238.108C85.2412 210.078 98.4464 184.139 110.224 167.313C125.106 146.052 146.23 127.268 168.177 115.78C179.645 109.774 193.337 109.774 204.805 115.78C226.752 127.268 247.876 146.052 262.758 167.313C274.536 184.139 287.741 210.078 283.77 238.108C283.756 238.204 283.737 238.3 283.713 238.394C283.552 239.022 283.381 239.658 283.211 240.277L282.76 241.847C282.721 241.983 282.681 242.117 282.635 242.254C282.557 242.531 282.47 242.807 282.384 243.081L282.294 243.37C282.15 243.836 281.998 244.293 281.848 244.748L281.813 244.852C281.737 245.078 281.664 245.299 281.589 245.511C281.36 246.198 281.111 246.908 280.844 247.608C280.589 248.325 280.296 249.086 279.993 249.837C279.717 250.555 279.407 251.303 279.089 252.05C278.783 252.776 278.455 253.524 278.118 254.253C277.815 254.93 277.489 255.626 277.155 256.323L277.002 256.627C276.719 257.231 276.387 257.884 276.046 258.538C275.675 259.275 275.304 259.969 274.926 260.672C274.469 261.514 274.007 262.338 273.528 263.153C273.22 263.691 272.887 264.249 272.554 264.806C272.55 264.812 272.547 264.818 272.543 264.824C272.535 264.837 272.527 264.851 272.52 264.864C272.105 265.549 271.681 266.225 271.249 266.901C270.478 268.106 269.752 269.198 269.032 270.24C268.703 270.721 268.359 271.2 268.016 271.68C267.732 272.077 267.446 272.471 267.15 272.875C266.711 273.474 266.265 274.064 265.818 274.654C265.37 275.239 264.932 275.794 264.482 276.359C264.224 276.682 263.971 276.999 263.717 277.307L262.332 278.969C261.507 279.938 260.657 280.904 259.806 281.844C259.419 282.283 258.991 282.739 258.563 283.194L257.6 284.22C257.12 284.719 256.677 285.18 256.217 285.631C255.605 286.252 254.944 286.905 254.282 287.549C253.746 288.066 253.217 288.57 252.678 289.065C252.577 289.164 252.475 289.259 252.374 289.346C251.831 289.862 251.278 290.362 250.716 290.862C249.627 291.831 248.553 292.757 247.524 293.616L246.732 294.278C246.163 294.745 245.608 295.192 245.046 295.639C243.109 297.176 241.095 298.683 239.063 300.119C239.047 300.13 238.995 300.166 238.965 300.186C238.958 300.191 238.951 300.196 238.944 300.201C223.253 311.237 204.869 316.753 186.49 316.754ZM135.149 294.528C135.751 294.964 136.354 295.399 136.957 295.825C166.535 316.694 206.305 316.724 235.92 295.899V295.899C235.961 295.87 236.005 295.839 236.031 295.822C237.982 294.444 239.915 292.996 241.776 291.52C242.316 291.09 242.849 290.66 243.373 290.231L244.153 289.579C245.14 288.755 246.172 287.864 247.22 286.933C247.758 286.454 248.29 285.974 248.811 285.477C248.856 285.433 248.904 285.392 248.953 285.352L249.002 285.303C249.028 285.276 249.056 285.25 249.084 285.225C249.602 284.749 250.111 284.265 250.62 283.773C251.25 283.16 251.886 282.533 252.503 281.906C252.959 281.46 253.365 281.037 253.779 280.606L254.699 279.624C255.122 279.175 255.512 278.761 255.886 278.339C256.724 277.413 257.538 276.486 258.327 275.56L259.648 273.975C259.895 273.674 260.133 273.378 260.37 273.081C260.794 272.547 261.214 272.016 261.634 271.468C262.055 270.912 262.485 270.344 262.906 269.768C263.188 269.383 263.462 269.007 263.736 268.622C264.063 268.165 264.386 267.716 264.7 267.258C265.39 266.258 266.082 265.217 266.819 264.065C267.227 263.428 267.627 262.789 268.019 262.142C268.025 262.132 268.032 262.121 268.038 262.11C268.354 261.581 268.67 261.052 268.978 260.514C269.443 259.723 269.876 258.951 270.299 258.171C270.652 257.516 271.002 256.86 271.342 256.188C271.347 256.178 271.378 256.116 271.383 256.107C271.691 255.516 271.991 254.924 272.274 254.325L272.436 253.999C272.728 253.39 273.035 252.737 273.331 252.075C273.656 251.372 273.959 250.682 274.245 250C274.545 249.298 274.831 248.607 275.1 247.909C275.392 247.185 275.659 246.49 275.91 245.787C276.171 245.102 276.396 244.462 276.612 243.814L276.855 243.092C276.996 242.67 277.136 242.247 277.269 241.818L277.366 241.507C277.443 241.262 277.521 241.014 277.59 240.767C277.605 240.711 277.622 240.656 277.642 240.601C277.667 240.527 277.687 240.456 277.708 240.384L278.146 238.861C278.29 238.335 278.44 237.778 278.583 237.225C281.441 216.714 274.294 192.964 258.45 170.33C244.033 149.735 223.592 131.551 202.365 120.44C192.426 115.233 180.557 115.233 170.617 120.44C149.391 131.551 128.948 149.735 114.532 170.33C98.6898 192.963 91.5438 216.712 94.3989 237.222C94.5497 237.798 94.7004 238.368 94.8583 238.937C94.9719 239.366 95.0864 239.755 95.208 240.153C95.2726 240.387 95.3249 240.555 95.3753 240.716C95.5134 241.175 95.6414 241.6 95.7764 242.024C95.9477 242.564 96.1277 243.1 96.306 243.628C96.5451 244.346 96.7978 245.053 97.0582 245.751C97.3227 246.491 97.591 247.186 97.8673 247.873C98.1389 248.565 98.4111 249.228 98.6915 249.89C98.6961 249.902 98.7018 249.914 98.7065 249.927C98.7309 249.976 98.7538 250.026 98.7744 250.075C99.2914 251.314 99.8834 252.618 100.583 254.064C100.6 254.099 100.616 254.134 100.631 254.17C100.664 254.228 100.696 254.288 100.724 254.348C101.008 254.949 101.308 255.55 101.617 256.142C101.935 256.76 102.255 257.364 102.574 257.969L102.623 258.059C103.041 258.819 103.458 259.578 103.882 260.322C104.099 260.692 104.332 261.084 104.564 261.473L104.868 261.984C105.329 262.746 105.808 263.506 106.295 264.267C106.618 264.781 106.944 265.275 107.27 265.761C107.837 266.619 108.44 267.494 109.124 268.456C109.401 268.853 109.669 269.228 109.947 269.595C109.959 269.611 110.013 269.684 110.025 269.701L109.989 269.662C110.048 269.728 110.103 269.798 110.155 269.87C110.471 270.312 110.804 270.748 111.135 271.184L111.419 271.558C112.434 272.875 113.538 274.242 114.688 275.603C115.069 276.051 115.459 276.501 115.85 276.943C116.371 277.543 116.875 278.107 117.388 278.67C117.918 279.242 118.466 279.825 119.014 280.409C119.532 280.951 120.072 281.499 120.612 282.047C121.189 282.633 121.739 283.175 122.298 283.709C122.877 284.27 123.441 284.808 124.013 285.337C124.574 285.866 125.127 286.362 125.688 286.866L125.772 286.942C126.353 287.463 126.943 287.976 127.541 288.489C128.14 289.002 128.739 289.516 129.354 290.02C129.963 290.518 130.524 290.976 131.089 291.431C131.129 291.46 131.169 291.489 131.208 291.52C131.836 292.019 132.464 292.51 133.093 292.992C133.665 293.426 134.259 293.869 134.852 294.312C134.956 294.381 135.053 294.452 135.149 294.528ZM249.013 285.303C249.007 285.308 249.001 285.313 248.995 285.319C249.001 285.314 249.007 285.308 249.013 285.303ZM98.7988 250.197C98.7996 250.198 98.7996 250.199 98.8004 250.2C98.7996 250.199 98.7996 250.198 98.7988 250.197ZM98.6378 249.797C98.6386 249.798 98.6386 249.798 98.6394 249.799C98.6386 249.798 98.6386 249.798 98.6378 249.797Z" fill="black"/>
<path d="M260.159 251.023C259.997 251.516 259.821 252.015 259.639 252.529C254.764 265.014 245.205 271.667 239.417 264.134L242.87 247.176L245.219 235.648C254.251 229.479 266.292 232.25 260.159 251.023Z" fill="#FDBD91"/>
<path d="M245.206 267.626C242.909 267.626 240.838 266.499 239.168 264.325L239.081 264.212L244.937 235.461L245.042 235.389C249.972 232.022 255.522 231.438 258.849 233.934C261.016 235.559 264.105 239.954 260.456 251.121C260.294 251.616 260.117 252.118 259.933 252.634C256.676 260.979 251.303 266.831 246.244 267.551C245.894 267.601 245.548 267.626 245.206 267.626ZM239.753 264.055C241.511 266.282 243.718 267.276 246.156 266.93C250.995 266.241 256.173 260.543 259.346 252.415C259.525 251.913 259.701 251.416 259.861 250.926C262.475 242.925 261.982 237.069 258.472 234.435C255.383 232.117 250.182 232.683 245.501 235.836L239.753 264.055Z" fill="black"/>
<g opacity="0.3">
<path d="M260.159 251.023C259.997 251.516 259.821 252.015 259.638 252.529C254.764 265.014 245.205 271.667 239.416 264.134L242.87 247.176C243.679 247.113 244.164 247.078 244.164 247.078C247.674 258.057 252.774 259.035 259.463 250.004C259.463 250.004 259.716 250.376 260.159 251.023Z" fill="black"/>
</g>
<path d="M245.219 269.42C242.368 269.42 239.75 268.03 237.744 265.42C237.37 264.935 237.227 264.313 237.349 263.713L243.152 235.226C243.261 234.688 243.576 234.214 244.029 233.905C249.663 230.058 256.096 229.524 260.037 232.581C262.681 234.63 266.402 240.04 261.623 253.246C258.065 262.361 252.278 268.504 246.499 269.328C246.068 269.389 245.641 269.42 245.219 269.42ZM241.689 263.55C242.931 264.852 244.319 265.375 245.904 265.15C250.047 264.559 254.776 259.179 257.673 251.761C260.48 244 260.407 238.207 257.452 235.916C255.141 234.125 250.973 234.562 247.11 236.936L241.689 263.55Z" fill="black"/>
<path d="M112.841 251.023C113.003 251.516 113.178 252.015 113.361 252.529C118.236 265.014 127.795 271.667 133.583 264.134L130.13 247.176L127.781 235.648C118.749 229.479 106.707 232.25 112.841 251.023Z" fill="#FDBD91"/>
<path d="M127.795 267.751C127.448 267.751 127.095 267.725 126.737 267.674C121.635 266.948 116.224 261.065 112.954 252.688C112.764 252.159 112.587 251.656 112.424 251.16V251.159C108.752 239.918 111.882 235.479 114.076 233.834C117.446 231.305 123.053 231.888 128.027 235.286L128.174 235.386L134.053 264.242L133.931 264.401C132.235 266.607 130.132 267.751 127.795 267.751ZM113.258 250.887C113.418 251.376 113.593 251.872 113.775 252.381C116.927 260.456 122.066 266.124 126.861 266.807C129.267 267.148 131.369 266.213 133.114 264.023L127.386 235.91C122.76 232.811 117.638 232.256 114.603 234.535C111.139 237.134 110.661 242.941 113.258 250.887Z" fill="black"/>
<g opacity="0.55">
<path d="M125.784 267.106C121.317 265.614 116.71 260.227 113.784 252.736C113.602 252.222 113.426 251.723 113.264 251.23C107.13 232.457 119.172 229.686 128.203 235.855L128.246 236.066C120.079 232.978 111.843 237.261 117.132 253.46C117.294 253.952 117.47 254.452 117.653 254.965C119.728 260.29 122.661 264.552 125.784 267.106Z" fill="white"/>
</g>
<path d="M127.781 269.42C127.359 269.42 126.932 269.389 126.501 269.328C120.723 268.504 114.935 262.361 111.396 253.296C106.598 240.04 110.32 234.63 112.963 232.581C116.904 229.526 123.337 230.058 128.97 233.905C129.424 234.214 129.738 234.688 129.847 235.226L135.651 263.713C135.773 264.312 135.63 264.935 135.256 265.42C133.25 268.03 130.631 269.42 127.781 269.42ZM119.209 234.817C117.774 234.817 116.503 235.176 115.548 235.916C112.593 238.207 112.52 244 115.346 251.811C118.224 259.178 122.953 264.559 127.096 265.15C128.683 265.375 130.068 264.852 131.311 263.55L125.889 236.936C123.622 235.543 121.249 234.817 119.209 234.817Z" fill="black"/>
<path d="M243.946 247.605V257.354C243.946 274.122 235.92 290.025 222.099 299.521C221.902 299.655 221.705 299.781 221.515 299.915C200.435 314.046 172.835 314.046 151.755 299.922C151.565 299.788 151.368 299.655 151.171 299.521C137.343 290.032 129.317 274.129 129.317 257.354V247.605C129.317 247.605 129.352 246.979 129.423 245.854C129.943 236.956 132.299 197.032 132.679 196.013C145.228 162.236 270.681 170.515 243.946 247.605Z" fill="#FDBD91"/>
<path d="M186.628 311.006C174.402 311.006 162.178 307.433 151.511 300.286C151.333 300.161 151.158 300.042 150.982 299.922C137.12 290.411 128.879 274.512 128.879 257.354V247.605C128.88 247.58 128.915 246.953 128.986 245.827C129.844 231.15 131.881 196.9 132.269 195.86C135.563 186.994 146.729 180.425 162.904 177.838C178.517 175.34 196.705 177.033 211.554 182.365C226.381 187.689 259.244 204.709 244.384 247.679V257.354C244.384 274.504 236.146 290.402 222.347 299.882L222.12 300.034C222.001 300.114 221.882 300.192 221.767 300.273C211.093 307.429 198.86 311.006 186.628 311.006ZM177.703 177.582C172.69 177.582 167.749 177.951 163.043 178.704C147.188 181.239 136.271 187.604 133.091 196.165C132.787 197.289 131.161 223.651 129.86 245.879C129.79 247.004 129.755 247.629 129.755 247.63L129.756 257.354C129.756 274.223 137.854 289.851 151.42 299.159C151.655 299.319 151.835 299.442 152.008 299.563C173.042 313.656 200.233 313.653 221.272 299.551C221.385 299.471 221.509 299.388 221.635 299.305L221.854 299.158C235.412 289.843 243.508 274.215 243.508 257.354L243.532 247.461C258.196 205.179 225.848 188.429 211.259 183.19C201.018 179.513 189.174 177.582 177.703 177.582Z" fill="black"/>
<g opacity="0.3">
<path d="M243.946 247.605V257.354C243.946 274.122 235.921 290.025 222.099 299.521C221.902 299.655 221.705 299.781 221.515 299.915C200.435 314.046 172.835 314.046 151.755 299.922C151.565 299.788 151.368 299.655 151.171 299.521C150.735 299.219 150.299 298.909 149.87 298.593C169.705 308.236 193.479 306.801 212.14 294.288C212.329 294.154 212.526 294.028 212.723 293.894C226.544 284.398 234.57 268.495 234.57 251.727L235.404 239.438C244.477 213.28 235.189 197.588 219.574 186.236C240.823 196.709 254.701 216.586 243.946 247.605Z" fill="black"/>
</g>
<g opacity="0.3">
<path d="M243.946 247.605V251.565C237.644 242.281 236.427 216.945 236.427 216.945C230.917 222.928 199.972 229.827 178.254 218.29C177.083 217.668 175.797 218.913 176.385 220.102C176.65 220.637 176.757 220.818 176.757 220.818C173.901 222.586 160.446 220.863 153.147 216.616C151.117 215.435 148.529 216.714 148.165 219.034C146.53 229.47 141.334 236.734 130.218 247.605C129.943 247.021 129.676 246.437 129.423 245.854C129.943 236.956 132.299 197.033 132.679 196.013C145.228 162.237 270.682 170.515 243.946 247.605Z" fill="black"/>
</g>
<g opacity="0.55">
<path d="M210.416 305.83C191.355 313.645 169.297 311.675 151.755 299.922C151.565 299.788 151.368 299.655 151.171 299.521C137.343 290.033 129.317 274.129 129.317 257.354V247.605C129.317 247.605 132.25 197.159 132.679 196.013C135.317 188.916 142.935 183.676 153.084 180.539C145.453 183.725 139.847 188.332 137.659 194.212C137.23 195.366 134.297 245.805 134.297 245.805V255.553C134.297 272.329 142.323 288.232 156.151 297.728C156.348 297.854 156.566 297.962 156.742 298.122C170.429 310.514 192.579 311.436 210.416 305.83Z" fill="white"/>
</g>
<path d="M186.633 312.682C174.083 312.682 161.534 309.013 150.584 301.674C150.382 301.539 150.18 301.402 149.978 301.263C135.72 291.48 127.207 275.064 127.207 257.353V247.605C127.207 247.564 127.208 247.523 127.211 247.483C130.161 196.76 130.568 195.634 130.702 195.275C138.424 174.498 181.928 169.948 212.126 180.794C226.511 185.961 237.403 194.155 243.625 204.49C250.946 216.653 251.764 231.276 246.056 247.958V257.353C246.056 275.06 237.546 291.473 223.291 301.259L222.69 301.667C211.738 309.01 199.185 312.681 186.633 312.682ZM131.427 247.666V257.353C131.427 273.673 139.255 288.787 152.366 297.784C152.554 297.913 152.742 298.04 152.932 298.167C173.408 311.891 199.867 311.888 220.338 298.163L220.9 297.781C234.01 288.782 241.836 273.669 241.836 257.353V247.605C241.836 247.37 241.875 247.136 241.952 246.914C256.128 206.045 224.818 189.837 210.699 184.766C180.096 173.775 141.153 179.861 134.715 196.593C134.325 199.318 132.546 228.433 131.427 247.666ZM134.673 196.704C134.668 196.716 134.663 196.731 134.659 196.743C134.663 196.732 134.667 196.719 134.673 196.704Z" fill="black"/>
<path d="M243.285 175.333C259.111 195.555 257.141 230.745 243.812 249.188C233.614 243.561 232.938 216.945 232.938 216.945C208.799 223.515 184.37 219.505 162.221 200.423C161.75 207.921 168.031 214.877 168.031 214.877C165.182 214.793 162.629 214.378 160.336 213.688C152.325 211.29 147.556 205.487 144.637 198.193C141.823 223.515 141.648 229.142 129.317 247.605C117.008 221.229 114.743 188.697 135.261 178.97C106.655 169.123 117.205 149.189 141.823 166.893C129.746 149.541 144.988 142.852 148.154 161.969C165.956 129.452 244.164 140.868 254.764 177.795L243.313 175.341C243.292 175.333 243.285 175.333 243.285 175.333Z" fill="black"/>
<path d="M243.94 249.759L243.601 249.571C234.003 244.276 232.678 221.485 232.519 217.512C206.877 224.327 183.373 218.893 162.634 201.352C162.702 208.232 168.297 214.518 168.357 214.583L169.044 215.345L168.019 215.315C165.227 215.233 162.6 214.827 160.21 214.109C153.281 212.034 148.255 207.38 144.889 199.906L144.735 201.295C142.232 223.968 141.56 230.062 129.682 247.849L129.249 248.496L128.92 247.79C116.523 221.224 114.462 189.364 134.142 179.039C122.587 174.844 118.043 169.194 117.668 165.234C117.471 163.166 118.359 161.455 120.168 160.417C123.56 158.47 130.534 158.818 140.231 165.258C136.168 158.611 136.283 153.8 137.75 151.595C138.609 150.303 139.957 149.745 141.432 150.064C143.901 150.594 146.949 153.681 148.369 160.714C158.16 144.448 181.778 140.852 200.904 142.978C223.692 145.51 249.314 157.221 255.186 177.674L255.387 178.377L244.351 176.011C259.707 196.782 257.04 231.633 244.167 249.445L243.94 249.759ZM233.362 216.375L233.376 216.934C233.384 217.194 234.144 242.766 243.688 248.608C256.376 230.677 258.768 195.828 242.94 175.603L242.385 174.895L243.456 174.927L254.132 177.211C247.989 157.584 223.04 146.32 200.807 143.849C181.562 141.709 157.725 145.402 148.538 162.18L147.929 163.293L147.721 162.04C146.488 154.594 143.464 151.396 141.248 150.92C140.123 150.68 139.14 151.09 138.48 152.081C137.03 154.26 137.13 159.381 142.183 166.643L143.644 168.743L141.567 167.249C131.232 159.817 123.813 159.333 120.605 161.177C119.112 162.034 118.378 163.446 118.54 165.152C118.885 168.775 123.508 174.461 135.404 178.556L136.421 178.906L135.449 179.366C115.474 188.836 117.275 220.27 129.387 246.71C140.728 229.601 141.41 223.425 143.863 201.2L144.395 196.407L145.044 198.03C148.294 206.151 153.337 211.136 160.461 213.269C162.496 213.88 164.71 214.258 167.057 214.396C165.434 212.356 161.393 206.611 161.784 200.395L161.839 199.515L162.507 200.091C183.324 218.026 206.981 223.556 232.823 216.522L233.362 216.375Z" fill="black"/>
<g opacity="0.3">
<path d="M141.709 193.785C142.758 195.809 143.715 198.091 144.349 200.795C141.795 223.929 141.212 229.788 129.317 247.605C127.925 244.616 126.659 241.556 125.547 238.454C135.314 223.304 136.456 214.747 138.712 194.336C138.885 192.767 140.983 192.383 141.709 193.785Z" fill="black"/>
</g>
<g opacity="0.55">
<path d="M137.174 163.889C121.686 157.327 116.08 168.672 131.167 177.38C109.391 167.885 117.156 152.425 137.174 163.889Z" fill="white"/>
</g>
<g opacity="0.55">
<path d="M134.768 179.216C134.783 179.222 134.797 179.229 134.812 179.236C136.762 180.098 137.174 182.656 135.533 184.017C121.519 195.637 122.052 221.781 131.301 244.574C130.682 245.544 130.021 246.557 129.317 247.605C117.107 221.439 114.779 189.225 134.768 179.216Z" fill="white"/>
</g>
<g opacity="0.55">
<path d="M140.86 166.611L140.812 166.585C132.639 154.002 140.076 146.755 145.041 152.558C142.299 152.963 140.67 157.205 143.716 163.916C144.524 165.696 142.575 167.549 140.86 166.611Z" fill="white"/>
</g>
<g opacity="0.55">
<path d="M239.241 158.804C225.764 152.586 207.715 148.429 191.334 148.352C188.809 153.198 180.298 152.959 176.718 149.512C167.504 151.165 159.703 154.654 154.836 160.471C153.443 162.138 150.721 162.025 149.624 160.148C149.56 160.049 149.504 159.944 149.455 159.824C164.718 140.362 216.205 138.758 239.241 158.804Z" fill="white"/>
</g>
<path d="M243.811 251.298C243.465 251.298 243.115 251.213 242.793 251.035C233.488 245.901 231.409 226.944 230.95 219.635C206.926 225.461 184.782 220.684 165.006 205.42C166.436 209.895 169.557 213.418 169.6 213.465C170.163 214.094 170.3 214.999 169.944 215.765C169.597 216.511 168.85 216.987 168.031 216.987C168.01 216.987 167.989 216.987 167.967 216.986C158.278 216.688 150.905 212.777 145.969 205.335C143.74 225.234 142.471 231.708 131.072 248.777C130.649 249.41 129.923 249.765 129.157 249.709C128.397 249.651 127.727 249.188 127.405 248.497C115.309 222.577 112.976 191.663 130.419 179.357C120.442 175.022 116.39 169.457 116.003 165.393C115.745 162.673 116.96 160.331 119.336 158.967C122.529 157.132 128.398 156.998 136.275 161.002C134.537 156.276 134.992 152.722 136.358 150.669C137.601 148.803 139.632 147.966 141.784 148.429C144.883 149.094 147.454 152.114 149.045 156.782C160.203 142.454 182.688 139.273 201.088 141.316C224.431 143.91 250.708 156.016 256.792 177.213C256.997 177.925 256.813 178.693 256.307 179.235C255.801 179.777 255.048 180.013 254.321 179.858L248.044 178.511C253.755 187.882 256.764 199.897 256.592 212.955C256.402 227.296 252.368 240.952 245.523 250.424C245.113 250.99 244.469 251.298 243.811 251.298ZM232.937 214.835C233.387 214.835 233.829 214.978 234.198 215.252C234.718 215.639 235.031 216.243 235.047 216.891C235.217 223.447 237.048 240.484 243.288 246.215C254.785 228.402 256.603 195.774 241.624 176.634C241.076 175.935 241.025 174.967 241.497 174.215C241.967 173.461 242.856 173.084 243.728 173.27L251.516 174.94C244.203 157.737 221.231 147.801 200.622 145.511C177.112 142.899 157.246 149.756 150.005 162.982C149.571 163.772 148.687 164.201 147.8 164.05C146.913 163.899 146.219 163.202 146.072 162.314C144.898 155.221 142.174 152.829 140.898 152.555C140.585 152.488 140.218 152.487 139.872 153.007C139.003 154.314 138.654 158.645 143.555 165.688C144.142 166.531 144.036 167.675 143.304 168.397C142.57 169.117 141.424 169.205 140.591 168.606C131.523 162.084 124.437 160.905 121.437 162.627C120.507 163.161 120.104 163.935 120.205 164.993C120.525 168.37 125.518 173.385 135.948 176.975C136.76 177.254 137.321 177.996 137.368 178.853C137.415 179.709 136.94 180.509 136.165 180.877C125.129 186.109 122.418 198.036 122.088 207.121C121.697 217.891 124.442 230.862 129.673 243.213C139.18 228.39 139.855 222.285 142.202 201.016L142.54 197.96C142.647 196.998 143.395 196.232 144.354 196.102C145.315 195.971 146.237 196.512 146.597 197.41C149.994 205.907 155.572 210.811 163.577 212.297C161.764 209.302 159.823 204.936 160.115 200.291C160.166 199.491 160.664 198.789 161.403 198.478C162.14 198.167 162.992 198.3 163.599 198.825C183.971 216.374 207.111 221.786 232.384 214.909C232.566 214.859 232.753 214.835 232.937 214.835Z" fill="black"/>
<path d="M232.937 219.056C232.006 219.056 231.154 218.435 230.901 217.493C230.598 216.368 231.265 215.21 232.39 214.907C235.011 214.203 237.661 213.356 240.267 212.392C241.36 211.988 242.574 212.545 242.978 213.638C243.382 214.731 242.824 215.945 241.732 216.35C239.005 217.359 236.232 218.244 233.486 218.983C233.303 219.032 233.118 219.056 232.937 219.056Z" fill="black"/>
<g opacity="0.3">
<path d="M243.813 249.187C233.614 243.561 232.938 216.945 232.938 216.945C208.799 223.514 184.371 219.505 162.221 200.423C161.75 207.921 168.031 214.877 168.031 214.877C165.183 214.792 162.629 214.377 160.336 213.688C148.787 194.655 153.703 190.167 170.31 196.019C216.395 210.889 249.946 213.217 243.285 175.333C259.111 195.555 257.141 230.745 243.813 249.187Z" fill="black"/>
</g>
<g opacity="0.2">
<path d="M232.113 192.919C232.113 196.116 225.854 198.707 218.134 198.707C210.414 198.707 204.156 196.116 204.156 192.919C204.156 189.723 210.414 189.64 218.134 189.64C225.854 189.64 232.113 189.723 232.113 192.919Z" fill="#FEFEFE"/>
</g>
<path d="M194.027 286.624C194.027 286.624 191 288.558 183.113 288.558C181.402 288.676 176.505 288.407 170.316 282.757C170.316 282.757 173.175 290.997 182.929 290.997C182.929 290.997 188.478 291.501 194.027 286.624Z" fill="black"/>
<path d="M149.243 250.005C149.905 247.853 151.491 246.063 153.445 244.844C155.408 243.627 157.762 243.005 160.096 243.029C162.432 243.045 164.752 243.715 166.694 244.925C168.628 246.139 170.215 247.879 170.957 250.006C168.834 249.276 167.026 248.694 165.241 248.319C163.469 247.936 161.76 247.746 160.053 247.723C158.346 247.705 156.642 247.856 154.886 248.229C153.117 248.595 151.331 249.192 149.243 250.005Z" fill="black"/>
<path d="M224.868 250.005C222.78 249.192 220.994 248.595 219.225 248.229C217.468 247.856 215.765 247.705 214.058 247.723C212.351 247.746 210.642 247.936 208.869 248.319C207.085 248.694 205.277 249.276 203.154 250.006C203.895 247.879 205.482 246.139 207.416 244.925C209.359 243.715 211.679 243.045 214.015 243.029C216.349 243.005 218.702 243.627 220.666 244.844C222.62 246.063 224.205 247.853 224.868 250.005Z" fill="black"/>
<path d="M162.221 272.429C166.227 272.429 169.475 268.144 169.475 262.86C169.475 257.575 166.227 253.29 162.221 253.29C158.215 253.29 154.967 257.575 154.967 262.86C154.967 268.144 158.215 272.429 162.221 272.429Z" fill="black"/>
<path d="M164.074 263.853C165.285 263.853 166.266 262.415 166.266 260.64C166.266 258.865 165.285 257.427 164.074 257.427C162.864 257.427 161.883 258.865 161.883 260.64C161.883 262.415 162.864 263.853 164.074 263.853Z" fill="white"/>
<path d="M164.074 264.292C162.599 264.292 161.444 262.687 161.444 260.64C161.444 258.592 162.599 256.988 164.074 256.988C165.549 256.988 166.704 258.592 166.704 260.64C166.704 262.687 165.549 264.292 164.074 264.292ZM164.074 257.865C163.124 257.865 162.32 259.135 162.32 260.64C162.32 262.144 163.124 263.415 164.074 263.415C165.025 263.415 165.828 262.144 165.828 260.64C165.828 259.135 165.025 257.865 164.074 257.865Z" fill="black"/>
<path d="M212.377 272.429C216.383 272.429 219.631 268.144 219.631 262.86C219.631 257.575 216.383 253.29 212.377 253.29C208.371 253.29 205.123 257.575 205.123 262.86C205.123 268.144 208.371 272.429 212.377 272.429Z" fill="black"/>
<path d="M210.524 263.853C211.735 263.853 212.716 262.415 212.716 260.64C212.716 258.865 211.735 257.427 210.524 257.427C209.314 257.427 208.333 258.865 208.333 260.64C208.333 262.415 209.314 263.853 210.524 263.853Z" fill="white"/>
<path d="M210.524 264.292C209.049 264.292 207.894 262.687 207.894 260.64C207.894 258.592 209.049 256.988 210.524 256.988C211.999 256.988 213.154 258.592 213.154 260.64C213.154 262.687 211.999 264.292 210.524 264.292ZM210.524 257.865C209.574 257.865 208.77 259.135 208.77 260.64C208.77 262.144 209.574 263.415 210.524 263.415C211.475 263.415 212.277 262.144 212.277 260.64C212.277 259.135 211.475 257.865 210.524 257.865Z" fill="black"/>
<path d="M292.56 433.111C291.436 438.673 288.426 443.459 284.275 446.857C280.125 450.247 274.835 452.248 269.156 452.248H107.911C96.5539 452.248 86.764 444.243 84.5066 433.111H292.56Z" fill="#C6D3E3"/>
<path d="M269.156 452.687H107.911C96.3908 452.687 86.3667 444.49 84.0768 433.198L83.9702 432.672H293.096L292.99 433.198C291.882 438.677 288.885 443.648 284.553 447.196C280.218 450.737 274.75 452.687 269.156 452.687ZM85.0485 433.549C87.4561 444.162 96.9852 451.81 107.911 451.81H269.156C274.548 451.81 279.82 449.93 283.999 446.517C288.035 443.212 290.869 438.623 292.018 433.549H85.0485Z" fill="black"/>
<path d="M269.159 454.878H107.912C95.353 454.878 84.4274 445.944 81.933 433.635C81.7758 432.862 81.9749 432.059 82.4744 431.448C82.9741 430.837 83.7208 430.483 84.5102 430.483H292.562C293.352 430.483 294.099 430.837 294.598 431.448C295.098 432.059 295.297 432.862 295.14 433.636C292.645 445.944 281.718 454.878 269.159 454.878ZM87.9859 435.743C91.0297 443.947 98.9525 449.618 107.913 449.618H269.159C278.119 449.618 286.042 443.946 289.087 435.743H87.9859Z" fill="black"/>
<g opacity="0.3">
<path d="M292.56 433.111C291.436 438.673 288.426 443.459 284.275 446.857C280.125 450.247 274.835 452.248 269.156 452.248H169.419C185.811 451.473 200.34 446.95 212.845 438.324C212.845 438.324 213.706 436.222 215.615 433.111L292.56 433.111Z" fill="black"/>
</g>
<path d="M292.499 332.001L284.082 427.975C283.57 433.832 278.667 438.324 272.787 438.324H104.281C98.4083 438.324 93.5056 433.832 92.9859 427.975L84.5769 332.001C83.7469 322.575 91.1785 314.461 100.635 314.461H276.433C279.528 314.461 282.406 315.33 284.85 316.827C289.877 319.915 293.057 325.663 292.499 332.001Z" fill="#C6D3E3"/>
<path d="M272.786 438.762H104.281C98.1362 438.762 93.0922 434.141 92.5492 428.014L84.1401 332.039C83.7335 327.424 85.2956 322.818 88.4256 319.399C91.5545 315.983 96.005 314.023 100.635 314.023H276.432C279.493 314.023 282.482 314.863 285.078 316.454C290.48 319.771 293.49 325.744 292.935 332.039V332.039L284.518 428.014C283.983 434.141 278.939 438.762 272.786 438.762ZM100.635 314.9C96.2496 314.9 92.0353 316.755 89.072 319.992C86.1072 323.228 84.628 327.592 85.0132 331.962L93.4223 427.937C93.9251 433.609 98.5934 437.885 104.281 437.885H272.787C278.482 437.885 283.149 433.609 283.645 427.937L292.062 331.962C292.588 326 289.736 320.343 284.62 317.201C282.163 315.695 279.331 314.9 276.433 314.9L100.635 314.9Z" fill="black"/>
<g opacity="0.75">
<path d="M289.814 321.582C287.759 320.621 285.462 320.085 283.027 320.085H107.228C97.7717 320.085 90.3401 328.2 91.1702 337.625L99.5792 433.599C99.7111 435.096 100.13 436.501 100.782 437.765C96.5616 436.4 93.3966 432.614 92.9854 427.975L84.5764 332.001C83.7464 322.575 91.178 314.461 100.634 314.461H276.433C282.033 314.461 286.928 317.308 289.814 321.582Z" fill="white"/>
</g>
<path d="M272.79 440.95H104.282C96.9878 440.95 91.006 435.47 90.3683 428.203L81.9528 332.227C81.495 327.002 83.2639 321.787 86.8073 317.919C90.3508 314.051 95.3917 311.833 100.637 311.833H276.435C281.68 311.833 286.721 314.051 290.264 317.919C293.808 321.787 295.577 327.002 295.119 332.227L286.704 428.203C286.067 435.47 280.085 440.95 272.79 440.95ZM100.637 317.093C96.8071 317.093 93.273 318.648 90.6854 321.472C88.0987 324.296 86.8578 327.952 87.1926 331.768L95.608 427.744C96.0059 432.274 99.7347 435.691 104.282 435.691H272.79C277.338 435.691 281.067 432.274 281.464 427.744L289.879 331.768C290.214 327.952 288.973 324.296 286.386 321.472C283.799 318.648 280.265 317.093 276.435 317.093H100.637Z" fill="black"/>
<g opacity="0.3">
<path d="M292.498 332.001L284.082 427.975C283.57 433.832 278.667 438.324 272.787 438.324H120.788C214.319 430.962 272.19 393.176 284.819 316.819L284.85 316.827C289.876 319.915 293.057 325.663 292.498 332.001Z" fill="black"/>
</g>
<g opacity="0.3">
<path d="M126.985 395.019L116.43 396.007C113.693 396.263 111.266 394.252 111.01 391.515L107.384 352.768C107.127 350.031 109.139 347.604 111.876 347.348L122.431 346.36C125.169 346.104 127.595 348.115 127.851 350.852L131.478 389.599C131.734 392.336 129.722 394.763 126.985 395.019Z" fill="white"/>
</g>
</svg>
